<svg width="24" height="24" viewBox="0 0 24 24" fill="none" xmlns="http://www.w3.org/2000/svg">
<path d="M20 6H15V4C15 2.9 14.1 2 13 2H11C9.9 2 9 2.9 9 4V6H4V22H20V6ZM11 4H13V6H11V4Z" fill="#444444"/>
<path d="M16.0895 17.1055C15.7465 17.1055 15.4432 17.0308 15.1795 16.8815C14.9159 16.7298 14.7082 16.5221 14.5565 16.2585C14.4072 15.9948 14.3325 15.6915 14.3325 15.3485V13.6125C14.3325 13.2695 14.4072 12.9661 14.5565 12.7025C14.7082 12.4388 14.9159 12.2323 15.1795 12.083C15.4432 11.9313 15.7465 11.8555 16.0895 11.8555C16.4325 11.8555 16.7359 11.9313 16.9995 12.083C17.2632 12.2323 17.4697 12.4388 17.619 12.7025C17.7707 12.9661 17.8465 13.2695 17.8465 13.6125V15.3485C17.8465 15.6915 17.7707 15.9948 17.619 16.2585C17.4697 16.5221 17.2632 16.7298 16.9995 16.8815C16.7359 17.0308 16.4325 17.1055 16.0895 17.1055ZM16.0895 16.4055C16.2762 16.4055 16.4454 16.3611 16.597 16.2725C16.751 16.1815 16.8735 16.0601 16.9645 15.9085C17.0555 15.7545 17.101 15.583 17.101 15.394V13.56C17.101 13.3733 17.0555 13.2041 16.9645 13.0525C16.8735 12.8985 16.751 12.7771 16.597 12.6885C16.4454 12.5975 16.2762 12.552 16.0895 12.552C15.9029 12.552 15.7325 12.5975 15.5785 12.6885C15.4269 12.7771 15.3055 12.8985 15.2145 13.0525C15.1235 13.2041 15.078 13.3733 15.078 13.56V15.394C15.078 15.583 15.1235 15.7545 15.2145 15.9085C15.3055 16.0601 15.4269 16.1815 15.5785 16.2725C15.7325 16.3611 15.9029 16.4055 16.0895 16.4055Z" fill="white"/>
<path d="M11.6686 17.1055C11.3256 17.1055 11.0223 17.0308 10.7586 16.8815C10.495 16.7298 10.2873 16.5221 10.1356 16.2585C9.98629 15.9948 9.91162 15.6915 9.91162 15.3485V13.6125C9.91162 13.2695 9.98629 12.9661 10.1356 12.7025C10.2873 12.4388 10.495 12.2323 10.7586 12.083C11.0223 11.9313 11.3256 11.8555 11.6686 11.8555C12.0116 11.8555 12.315 11.9313 12.5786 12.083C12.8423 12.2323 13.0488 12.4388 13.1981 12.7025C13.3498 12.9661 13.4256 13.2695 13.4256 13.6125V15.3485C13.4256 15.6915 13.3498 15.9948 13.1981 16.2585C13.0488 16.5221 12.8423 16.7298 12.5786 16.8815C12.315 17.0308 12.0116 17.1055 11.6686 17.1055ZM11.6686 16.4055C11.8553 16.4055 12.0245 16.3611 12.1761 16.2725C12.3301 16.1815 12.4526 16.0601 12.5436 15.9085C12.6346 15.7545 12.6801 15.583 12.6801 15.394V13.56C12.6801 13.3733 12.6346 13.2041 12.5436 13.0525C12.4526 12.8985 12.3301 12.7771 12.1761 12.6885C12.0245 12.5975 11.8553 12.552 11.6686 12.552C11.482 12.552 11.3116 12.5975 11.1576 12.6885C11.006 12.7771 10.8846 12.8985 10.7936 13.0525C10.7026 13.2041 10.6571 13.3733 10.6571 13.56V15.394C10.6571 15.583 10.7026 15.7545 10.7936 15.9085C10.8846 16.0601 11.006 16.1815 11.1576 16.2725C11.3116 16.3611 11.482 16.4055 11.6686 16.4055Z" fill="white"/>
<path d="M7.24723 17.1055C6.90423 17.1055 6.6009 17.0308 6.33723 16.8815C6.07357 16.7298 5.8659 16.5221 5.71423 16.2585C5.5649 15.9948 5.49023 15.6915 5.49023 15.3485V13.6125C5.49023 13.2695 5.5649 12.9661 5.71423 12.7025C5.8659 12.4388 6.07357 12.2323 6.33723 12.083C6.6009 11.9313 6.90423 11.8555 7.24723 11.8555C7.59023 11.8555 7.89357 11.9313 8.15723 12.083C8.4209 12.2323 8.6274 12.4388 8.77673 12.7025C8.9284 12.9661 9.00423 13.2695 9.00423 13.6125V15.3485C9.00423 15.6915 8.9284 15.9948 8.77673 16.2585C8.6274 16.5221 8.4209 16.7298 8.15723 16.8815C7.89357 17.0308 7.59023 17.1055 7.24723 17.1055ZM7.24723 16.4055C7.4339 16.4055 7.60307 16.3611 7.75473 16.2725C7.90873 16.1815 8.03123 16.0601 8.12223 15.9085C8.21323 15.7545 8.25873 15.583 8.25873 15.394V13.56C8.25873 13.3733 8.21323 13.2041 8.12223 13.0525C8.03123 12.8985 7.90873 12.7771 7.75473 12.6885C7.60307 12.5975 7.4339 12.552 7.24723 12.552C7.06057 12.552 6.89023 12.5975 6.73623 12.6885C6.58457 12.7771 6.46323 12.8985 6.37223 13.0525C6.28123 13.2041 6.23573 13.3733 6.23573 13.56V15.394C6.23573 15.583 6.28123 15.7545 6.37223 15.9085C6.46323 16.0601 6.58457 16.1815 6.73623 16.2725C6.89023 16.3611 7.06057 16.4055 7.24723 16.4055Z" fill="white"/>
</svg>
