<svg width="24" height="24" viewBox="0 0 24 24" fill="none" xmlns="http://www.w3.org/2000/svg">
<path d="M4.222 13.5L12 21L19.778 13.5C21.128 12.4835 22 10.872 22 9.0555C22 5.989 19.511 3.5 16.4445 3.5C14.628 3.5 13.011 4.378 12 5.728C10.989 4.378 9.372 3.5 7.5555 3.5C4.489 3.5 2 5.989 2 9.0555C2 10.872 2.872 12.4835 4.222 13.5ZM7.5555 4.5C8.9805 4.5 10.3425 5.183 11.1995 6.327L12 7.396L12.8005 6.3275C13.6575 5.183 15.0195 4.5 16.4445 4.5C18.9565 4.5 21 6.5435 21 9.0555C21 10.4995 20.3355 11.8285 19.176 12.701L19.1275 12.7375L19.0835 12.78L12 19.611L4.9165 12.78L4.8725 12.7375L4.824 12.701C3.665 11.8285 3 10.4995 3 9.0555C3 6.5435 5.0435 4.5 7.5555 4.5Z" fill="#444444"/>
</svg>
