<svg width="24" height="25" viewBox="0 0 24 25" fill="none" xmlns="http://www.w3.org/2000/svg">
<path d="M21.5984 22.7001C21.5984 21.4394 21.3501 20.1911 20.8677 19.0263C20.3852 17.8616 19.6781 16.8033 18.7867 15.9119C17.8952 15.0204 16.8369 14.3133 15.6722 13.8309C14.5075 13.3484 13.2591 13.1001 11.9984 13.1001C10.7377 13.1001 9.4894 13.3484 8.32468 13.8309C7.15995 14.3133 6.10165 15.0204 5.21021 15.9119C4.31877 16.8033 3.61164 17.8616 3.12919 19.0263C2.64675 20.1911 2.39844 21.4394 2.39844 22.7001L11.9984 22.7001H21.5984Z" fill="#444444"/>
<path d="M12 13.8999C13.775 13.8999 15.3645 13.1249 16.463 11.8999C17.4155 10.8379 18 9.4389 18 7.8999C18 4.5864 15.3135 1.8999 12 1.8999C8.6865 1.8999 6 4.5864 6 7.8999C6 9.4389 6.5845 10.8379 7.537 11.8999C8.6355 13.1249 10.225 13.8999 12 13.8999Z" fill="#444444"/>
</svg>
