<svg width="24" height="24" viewBox="0 0 24 24" fill="none" xmlns="http://www.w3.org/2000/svg">
<path d="M13.5 5H10.5V6H13.5V5Z" fill="#444444"/>
<path d="M12 19C12.5523 19 13 18.5523 13 18C13 17.4477 12.5523 17 12 17C11.4477 17 11 17.4477 11 18C11 18.5523 11.4477 19 12 19Z" fill="#444444"/>
<path d="M16 22C17.1 22 18 21.1 18 20V4C18 2.9 17.1 2 16 2H8C6.9 2 6 2.9 6 4V20C6 21.1 6.9 22 8 22H16ZM7 20V4C7 3.4485 7.4485 3 8 3H16C16.5515 3 17 3.4485 17 4V20C17 20.5515 16.5515 21 16 21H8C7.4485 21 7 20.5515 7 20Z" fill="#444444"/>
</svg>
